<mxfile host="Electron" agent="Mozilla/5.0 (Windows NT 10.0; Win64; x64) AppleWebKit/537.36 (KHTML, like Gecko) draw.io/26.2.2 Chrome/134.0.6998.178 Electron/35.1.2 Safari/537.36" version="26.2.2">
  <diagram name="第 1 页" id="ZOMC_lvuJO0Y9I3vqq2i">
    <mxGraphModel dx="526" dy="659" grid="1" gridSize="10" guides="1" tooltips="1" connect="1" arrows="1" fold="1" page="1" pageScale="1" pageWidth="827" pageHeight="1169" math="0" shadow="0">
      <root>
        <mxCell id="0" />
        <mxCell id="1" parent="0" />
        <mxCell id="Z-4FAFlGTit4HD-Zdb4R-2" value="main()" style="rounded=0;whiteSpace=wrap;html=1;" parent="1" vertex="1">
          <mxGeometry x="220" y="70" width="120" height="60" as="geometry" />
        </mxCell>
        <mxCell id="Z-4FAFlGTit4HD-Zdb4R-3" value="clear_screen()" style="rounded=0;whiteSpace=wrap;html=1;" parent="1" vertex="1">
          <mxGeometry x="20" y="230" width="120" height="60" as="geometry" />
        </mxCell>
        <mxCell id="Z-4FAFlGTit4HD-Zdb4R-4" value="instruct()" style="whiteSpace=wrap;html=1;" parent="1" vertex="1">
          <mxGeometry x="220" y="230" width="120" height="60" as="geometry" />
        </mxCell>
        <mxCell id="Z-4FAFlGTit4HD-Zdb4R-5" value="select_option" style="whiteSpace=wrap;html=1;" parent="1" vertex="1">
          <mxGeometry x="430" y="230" width="126" height="60" as="geometry" />
        </mxCell>
        <mxCell id="Z-4FAFlGTit4HD-Zdb4R-11" value="is_digit()" style="whiteSpace=wrap;html=1;" parent="1" vertex="1">
          <mxGeometry x="436" y="380" width="120" height="60" as="geometry" />
        </mxCell>
        <mxCell id="Z-4FAFlGTit4HD-Zdb4R-15" value="Opt" style="html=1;verticalAlign=bottom;startArrow=oval;startFill=1;endArrow=block;startSize=8;curved=0;rounded=0;" parent="1" edge="1">
          <mxGeometry x="0.3333" y="20" width="60" relative="1" as="geometry">
            <mxPoint x="520" y="310" as="sourcePoint" />
            <mxPoint x="520" y="340" as="targetPoint" />
            <mxPoint as="offset" />
          </mxGeometry>
        </mxCell>
        <mxCell id="Z-4FAFlGTit4HD-Zdb4R-16" value="Opt&lt;div&gt;loop&lt;/div&gt;" style="html=1;verticalAlign=bottom;startArrow=oval;startFill=1;endArrow=block;startSize=8;curved=0;rounded=0;" parent="1" edge="1">
          <mxGeometry x="1" y="20" width="60" relative="1" as="geometry">
            <mxPoint x="510" y="180" as="sourcePoint" />
            <mxPoint x="510" y="210" as="targetPoint" />
            <mxPoint as="offset" />
          </mxGeometry>
        </mxCell>
        <mxCell id="Z-4FAFlGTit4HD-Zdb4R-17" value="ft.choose_option()" style="whiteSpace=wrap;html=1;" parent="1" vertex="1">
          <mxGeometry x="300" y="640" width="120" height="60" as="geometry" />
        </mxCell>
        <mxCell id="Z-4FAFlGTit4HD-Zdb4R-18" value="ft.choose_option_r()" style="whiteSpace=wrap;html=1;" parent="1" vertex="1">
          <mxGeometry x="570" y="640" width="120" height="60" as="geometry" />
        </mxCell>
        <mxCell id="Z-4FAFlGTit4HD-Zdb4R-21" value="" style="rhombus;whiteSpace=wrap;html=1;" parent="1" vertex="1">
          <mxGeometry x="473" y="320" width="40" height="30" as="geometry" />
        </mxCell>
        <mxCell id="Z-4FAFlGTit4HD-Zdb4R-27" value="" style="endArrow=none;html=1;rounded=0;entryX=0.5;entryY=1;entryDx=0;entryDy=0;" parent="1" source="Z-4FAFlGTit4HD-Zdb4R-4" target="Z-4FAFlGTit4HD-Zdb4R-2" edge="1">
          <mxGeometry width="50" height="50" relative="1" as="geometry">
            <mxPoint x="270" y="300" as="sourcePoint" />
            <mxPoint x="320" y="250" as="targetPoint" />
            <Array as="points" />
          </mxGeometry>
        </mxCell>
        <mxCell id="Z-4FAFlGTit4HD-Zdb4R-28" value="" style="endArrow=none;html=1;rounded=0;entryX=0.5;entryY=1;entryDx=0;entryDy=0;exitX=0.5;exitY=0;exitDx=0;exitDy=0;" parent="1" source="Z-4FAFlGTit4HD-Zdb4R-3" edge="1">
          <mxGeometry width="50" height="50" relative="1" as="geometry">
            <mxPoint x="280" y="230" as="sourcePoint" />
            <mxPoint x="280" y="130" as="targetPoint" />
            <Array as="points">
              <mxPoint x="80" y="180" />
              <mxPoint x="280" y="180" />
            </Array>
          </mxGeometry>
        </mxCell>
        <mxCell id="Z-4FAFlGTit4HD-Zdb4R-29" value="" style="endArrow=none;html=1;rounded=0;entryX=0.5;entryY=1;entryDx=0;entryDy=0;exitX=0.5;exitY=0;exitDx=0;exitDy=0;" parent="1" source="Z-4FAFlGTit4HD-Zdb4R-5" edge="1">
          <mxGeometry width="50" height="50" relative="1" as="geometry">
            <mxPoint x="481.71428571428567" y="220" as="sourcePoint" />
            <mxPoint x="280" y="130" as="targetPoint" />
            <Array as="points">
              <mxPoint x="493" y="180" />
              <mxPoint x="280" y="180" />
            </Array>
          </mxGeometry>
        </mxCell>
        <mxCell id="Z-4FAFlGTit4HD-Zdb4R-30" value="" style="endArrow=none;html=1;rounded=0;exitX=0.5;exitY=0;exitDx=0;exitDy=0;" parent="1" source="Z-4FAFlGTit4HD-Zdb4R-21" edge="1">
          <mxGeometry width="50" height="50" relative="1" as="geometry">
            <mxPoint x="493" y="310" as="sourcePoint" />
            <mxPoint x="492.5" y="290" as="targetPoint" />
          </mxGeometry>
        </mxCell>
        <mxCell id="Z-4FAFlGTit4HD-Zdb4R-31" value="" style="endArrow=none;html=1;rounded=0;exitX=0.5;exitY=0;exitDx=0;exitDy=0;" parent="1" edge="1">
          <mxGeometry width="50" height="50" relative="1" as="geometry">
            <mxPoint x="493" y="380" as="sourcePoint" />
            <mxPoint x="492.5" y="350" as="targetPoint" />
          </mxGeometry>
        </mxCell>
        <mxCell id="Z-4FAFlGTit4HD-Zdb4R-35" value="" style="verticalLabelPosition=bottom;html=1;verticalAlign=top;strokeWidth=2;shape=mxgraph.lean_mapping.physical_pull;pointerEvents=1;" parent="1" vertex="1">
          <mxGeometry x="260" y="150" width="40" height="20" as="geometry" />
        </mxCell>
        <mxCell id="Z-4FAFlGTit4HD-Zdb4R-36" value="(+)" style="text;html=1;align=center;verticalAlign=middle;resizable=0;points=[];autosize=1;strokeColor=none;fillColor=none;" parent="1" vertex="1">
          <mxGeometry x="476" y="600" width="40" height="30" as="geometry" />
        </mxCell>
        <mxCell id="ght4-IODuxtQnosFnlIR-1" value="" style="endArrow=none;html=1;rounded=0;entryX=0.5;entryY=1;entryDx=0;entryDy=0;" parent="1" target="Z-4FAFlGTit4HD-Zdb4R-18" edge="1">
          <mxGeometry width="50" height="50" relative="1" as="geometry">
            <mxPoint x="630" y="735" as="sourcePoint" />
            <mxPoint x="630" y="735" as="targetPoint" />
          </mxGeometry>
        </mxCell>
        <mxCell id="ght4-IODuxtQnosFnlIR-4" value="2" style="ellipse;whiteSpace=wrap;html=1;" parent="1" vertex="1">
          <mxGeometry x="620" y="735" width="20" height="20" as="geometry" />
        </mxCell>
        <mxCell id="ght4-IODuxtQnosFnlIR-5" value="" style="endArrow=none;html=1;rounded=0;entryX=0.5;entryY=1;entryDx=0;entryDy=0;" parent="1" edge="1">
          <mxGeometry width="50" height="50" relative="1" as="geometry">
            <mxPoint x="360" y="735" as="sourcePoint" />
            <mxPoint x="360" y="700" as="targetPoint" />
          </mxGeometry>
        </mxCell>
        <mxCell id="ght4-IODuxtQnosFnlIR-6" value="1" style="ellipse;whiteSpace=wrap;html=1;" parent="1" vertex="1">
          <mxGeometry x="350" y="735" width="20" height="20" as="geometry" />
        </mxCell>
        <mxCell id="ght4-IODuxtQnosFnlIR-8" value="select opt" style="whiteSpace=wrap;html=1;" parent="1" vertex="1">
          <mxGeometry x="436" y="495" width="120" height="60" as="geometry" />
        </mxCell>
        <mxCell id="ght4-IODuxtQnosFnlIR-9" value="" style="endArrow=none;html=1;rounded=0;entryX=0.5;entryY=1;entryDx=0;entryDy=0;exitX=0.5;exitY=0;exitDx=0;exitDy=0;" parent="1" source="ght4-IODuxtQnosFnlIR-8" target="Z-4FAFlGTit4HD-Zdb4R-11" edge="1">
          <mxGeometry width="50" height="50" relative="1" as="geometry">
            <mxPoint x="460" y="670" as="sourcePoint" />
            <mxPoint x="510" y="620" as="targetPoint" />
          </mxGeometry>
        </mxCell>
        <mxCell id="ght4-IODuxtQnosFnlIR-10" value="Opt" style="html=1;verticalAlign=bottom;startArrow=oval;startFill=1;endArrow=block;startSize=8;curved=0;rounded=0;" parent="1" edge="1">
          <mxGeometry x="0.3333" y="20" width="60" relative="1" as="geometry">
            <mxPoint x="513" y="460" as="sourcePoint" />
            <mxPoint x="513" y="490" as="targetPoint" />
            <mxPoint as="offset" />
          </mxGeometry>
        </mxCell>
        <mxCell id="ght4-IODuxtQnosFnlIR-11" value="" style="endArrow=none;html=1;rounded=0;entryX=0.5;entryY=1;entryDx=0;entryDy=0;exitX=0.5;exitY=0;exitDx=0;exitDy=0;" parent="1" source="Z-4FAFlGTit4HD-Zdb4R-17" target="ght4-IODuxtQnosFnlIR-8" edge="1">
          <mxGeometry width="50" height="50" relative="1" as="geometry">
            <mxPoint x="460" y="470" as="sourcePoint" />
            <mxPoint x="510" y="420" as="targetPoint" />
            <Array as="points">
              <mxPoint x="360" y="600" />
              <mxPoint x="496" y="600" />
            </Array>
          </mxGeometry>
        </mxCell>
        <mxCell id="ght4-IODuxtQnosFnlIR-12" value="" style="endArrow=none;html=1;rounded=0;entryX=0.5;entryY=1;entryDx=0;entryDy=0;exitX=0.5;exitY=0;exitDx=0;exitDy=0;" parent="1" source="Z-4FAFlGTit4HD-Zdb4R-18" target="ght4-IODuxtQnosFnlIR-8" edge="1">
          <mxGeometry width="50" height="50" relative="1" as="geometry">
            <mxPoint x="370" y="650" as="sourcePoint" />
            <mxPoint x="506" y="565" as="targetPoint" />
            <Array as="points">
              <mxPoint x="630" y="600" />
              <mxPoint x="496" y="600" />
            </Array>
          </mxGeometry>
        </mxCell>
      </root>
    </mxGraphModel>
  </diagram>
</mxfile>
